<mxfile host="app.diagrams.net" agent="Mozilla/5.0 (Windows NT 10.0; Win64; x64) AppleWebKit/537.36 (KHTML, like Gecko) Chrome/131.0.0.0 Safari/537.36 Edg/131.0.0.0" version="26.0.5">
  <diagram name="Page-1" id="9Q2Y2ZVBkzwjHHj2tfPY">
    <mxGraphModel dx="1042" dy="565" grid="1" gridSize="10" guides="1" tooltips="1" connect="1" arrows="1" fold="1" page="1" pageScale="1" pageWidth="850" pageHeight="1100" math="0" shadow="0">
      <root>
        <mxCell id="0" />
        <mxCell id="1" parent="0" />
        <mxCell id="2a_TJZhKSC8VaCJn3bgw-10" style="rounded=0;orthogonalLoop=1;jettySize=auto;html=1;exitX=0.5;exitY=0.5;exitDx=0;exitDy=0;exitPerimeter=0;entryX=0.5;entryY=1;entryDx=0;entryDy=0;" edge="1" parent="1" source="2a_TJZhKSC8VaCJn3bgw-1" target="2a_TJZhKSC8VaCJn3bgw-3">
          <mxGeometry relative="1" as="geometry" />
        </mxCell>
        <mxCell id="2a_TJZhKSC8VaCJn3bgw-11" style="rounded=0;orthogonalLoop=1;jettySize=auto;html=1;exitX=0.5;exitY=0.5;exitDx=0;exitDy=0;exitPerimeter=0;entryX=0;entryY=1;entryDx=0;entryDy=0;" edge="1" parent="1" source="2a_TJZhKSC8VaCJn3bgw-1" target="2a_TJZhKSC8VaCJn3bgw-4">
          <mxGeometry relative="1" as="geometry" />
        </mxCell>
        <mxCell id="2a_TJZhKSC8VaCJn3bgw-12" style="rounded=0;orthogonalLoop=1;jettySize=auto;html=1;exitX=0.5;exitY=0.5;exitDx=0;exitDy=0;exitPerimeter=0;" edge="1" parent="1" source="2a_TJZhKSC8VaCJn3bgw-1" target="2a_TJZhKSC8VaCJn3bgw-9">
          <mxGeometry relative="1" as="geometry" />
        </mxCell>
        <mxCell id="2a_TJZhKSC8VaCJn3bgw-13" style="rounded=0;orthogonalLoop=1;jettySize=auto;html=1;exitX=0.5;exitY=0.5;exitDx=0;exitDy=0;exitPerimeter=0;entryX=0;entryY=0;entryDx=0;entryDy=0;" edge="1" parent="1" source="2a_TJZhKSC8VaCJn3bgw-1" target="2a_TJZhKSC8VaCJn3bgw-6">
          <mxGeometry relative="1" as="geometry" />
        </mxCell>
        <mxCell id="2a_TJZhKSC8VaCJn3bgw-14" style="rounded=0;orthogonalLoop=1;jettySize=auto;html=1;exitX=0.5;exitY=0.5;exitDx=0;exitDy=0;exitPerimeter=0;entryX=0;entryY=0.5;entryDx=0;entryDy=0;" edge="1" parent="1" source="2a_TJZhKSC8VaCJn3bgw-1" target="2a_TJZhKSC8VaCJn3bgw-5">
          <mxGeometry relative="1" as="geometry" />
        </mxCell>
        <mxCell id="2a_TJZhKSC8VaCJn3bgw-15" style="rounded=0;orthogonalLoop=1;jettySize=auto;html=1;exitX=0.5;exitY=0.5;exitDx=0;exitDy=0;exitPerimeter=0;entryX=1;entryY=0.5;entryDx=0;entryDy=0;" edge="1" parent="1" source="2a_TJZhKSC8VaCJn3bgw-1" target="2a_TJZhKSC8VaCJn3bgw-8">
          <mxGeometry relative="1" as="geometry" />
        </mxCell>
        <mxCell id="2a_TJZhKSC8VaCJn3bgw-16" style="rounded=0;orthogonalLoop=1;jettySize=auto;html=1;exitX=0.5;exitY=0.5;exitDx=0;exitDy=0;exitPerimeter=0;entryX=1;entryY=1;entryDx=0;entryDy=0;" edge="1" parent="1" source="2a_TJZhKSC8VaCJn3bgw-1" target="2a_TJZhKSC8VaCJn3bgw-2">
          <mxGeometry relative="1" as="geometry" />
        </mxCell>
        <mxCell id="2a_TJZhKSC8VaCJn3bgw-17" style="rounded=0;orthogonalLoop=1;jettySize=auto;html=1;exitX=0.5;exitY=0.5;exitDx=0;exitDy=0;exitPerimeter=0;entryX=1;entryY=0;entryDx=0;entryDy=0;" edge="1" parent="1" source="2a_TJZhKSC8VaCJn3bgw-1" target="2a_TJZhKSC8VaCJn3bgw-7">
          <mxGeometry relative="1" as="geometry" />
        </mxCell>
        <mxCell id="2a_TJZhKSC8VaCJn3bgw-1" value="admin" style="shape=umlActor;html=1;verticalLabelPosition=bottom;verticalAlign=top;align=center;" vertex="1" parent="1">
          <mxGeometry x="400" y="290" width="30" height="60" as="geometry" />
        </mxCell>
        <mxCell id="2a_TJZhKSC8VaCJn3bgw-2" value="Quản lý vận chuyển" style="ellipse;whiteSpace=wrap;html=1;" vertex="1" parent="1">
          <mxGeometry x="160" y="180" width="140" height="70" as="geometry" />
        </mxCell>
        <mxCell id="2a_TJZhKSC8VaCJn3bgw-3" value="Quản lý khách hàng" style="ellipse;whiteSpace=wrap;html=1;" vertex="1" parent="1">
          <mxGeometry x="345" y="110" width="140" height="70" as="geometry" />
        </mxCell>
        <mxCell id="2a_TJZhKSC8VaCJn3bgw-4" value="Quản lý sản phẩm" style="ellipse;whiteSpace=wrap;html=1;" vertex="1" parent="1">
          <mxGeometry x="510" y="180" width="140" height="70" as="geometry" />
        </mxCell>
        <mxCell id="2a_TJZhKSC8VaCJn3bgw-5" value="Quản lý danh mục" style="ellipse;whiteSpace=wrap;html=1;" vertex="1" parent="1">
          <mxGeometry x="600" y="285" width="140" height="70" as="geometry" />
        </mxCell>
        <mxCell id="2a_TJZhKSC8VaCJn3bgw-6" value="Quản lý mã giảm giá" style="ellipse;whiteSpace=wrap;html=1;" vertex="1" parent="1">
          <mxGeometry x="510" y="410" width="140" height="70" as="geometry" />
        </mxCell>
        <mxCell id="2a_TJZhKSC8VaCJn3bgw-7" value="Quản lý thương hiệu" style="ellipse;whiteSpace=wrap;html=1;" vertex="1" parent="1">
          <mxGeometry x="160" y="400" width="140" height="70" as="geometry" />
        </mxCell>
        <mxCell id="2a_TJZhKSC8VaCJn3bgw-8" value="Thống kê" style="ellipse;whiteSpace=wrap;html=1;" vertex="1" parent="1">
          <mxGeometry x="100" y="285" width="140" height="70" as="geometry" />
        </mxCell>
        <mxCell id="2a_TJZhKSC8VaCJn3bgw-9" value="Quản lý đơn hàng" style="ellipse;whiteSpace=wrap;html=1;" vertex="1" parent="1">
          <mxGeometry x="345" y="460" width="140" height="70" as="geometry" />
        </mxCell>
      </root>
    </mxGraphModel>
  </diagram>
</mxfile>
